<?xml version="1.0" encoding="utf-8"?>
<!-- Generator: Adobe Illustrator 20.0.0, SVG Export Plug-In . SVG Version: 6.00 Build 0)  -->
<svg version="1.1" id="Layer_1" xmlns="http://www.w3.org/2000/svg" xmlns:xlink="http://www.w3.org/1999/xlink" x="0px" y="0px"
	 viewBox="0 0 13.6 13.6" style="enable-background:new 0 0 13.6 13.6;" xml:space="preserve">
<style type="text/css">
	.st0{clip-path:url(#SVGID_2_);fill:#FFFFFF;}
</style>
<g>
	<g>
		<defs>
			<rect id="SVGID_1_" width="13.5" height="13.6"/>
		</defs>
		<clipPath id="SVGID_2_">
			<use xlink:href="#SVGID_1_"  style="overflow:visible;"/>
		</clipPath>
		<path class="st0" d="M13.2,10.6l-2.1-2.1c-0.4-0.4-1.1-0.4-1.5,0l-1,1c-0.1,0-0.1-0.1-0.2-0.1C7.7,9.1,6.8,8.6,5.8,7.6
			C4.9,6.7,4.4,5.8,4,5.1C4,5.1,3.9,5,3.9,4.9l0.7-0.7l0.3-0.3c0.4-0.4,0.4-1.1,0-1.5L2.9,0.3c-0.4-0.4-1.1-0.4-1.5,0L0.8,0.9l0,0
			C0.6,1.2,0.5,1.5,0.3,1.8C0.2,2.1,0.2,2.4,0.1,2.6C-0.1,4.9,0.9,7,3.7,9.8c3.9,3.9,7,3.6,7.1,3.6c0.3,0,0.6-0.1,0.9-0.2
			c0.3-0.1,0.6-0.3,0.8-0.5l0,0l0.6-0.6C13.6,11.6,13.6,11,13.2,10.6L13.2,10.6z M13.2,10.6"/>
	</g>
</g>
</svg>
