<svg xmlns="http://www.w3.org/2000/svg" width="11" height="11" viewBox="0 0 11 11"><path fill="rgba(55,59,64,.7)" d="M11 8.7c0 .1 0 .3-.1.5s-.1.4-.2.5c-.1.3-.4.5-.9.8-.5.3-1 .4-1.4.4H8c-.1 0-.3-.1-.4-.1-.2 0-.3-.1-.4-.1-.1 0-.2-.1-.4-.2s-.3-.1-.4-.1c-.5-.2-1-.4-1.4-.6-.7-.4-1.3-1-2.1-1.7s-1.3-1.4-1.7-2C1 5.7.7 5.2.6 4.7c0 0-.1-.2-.1-.4-.2-.2-.2-.3-.2-.4 0-.1-.1-.2-.1-.4s-.1-.3-.1-.4v-.4c0-.5.1-1 .4-1.4.2-.6.5-.9.7-1 .1-.1.3-.1.5-.2.3 0 .5-.1.6-.1h.2c.1 0 .2.2.4.6.1.1.1.3.2.5s.2.3.3.5c.1.1.2.2.3.4 0 0 .1.1.1.2.1.1.1.2.2.2v.3c0 .1-.1.2-.2.4-.2.1-.3.2-.5.4-.2.1-.3.2-.5.4-.1.1-.2.3-.2.3v.2c0 .1 0 .1.1.2 0 0 .1.1.1.2l.1.1c.4.7.8 1.3 1.4 1.8.5.5 1.1 1 1.8 1.4 0 0 .1 0 .1.1.1.1.2.1.2.1s.1 0 .2.1h.2c.1 0 .2-.1.4-.2.1-.2.2-.3.3-.5.1-.2.3-.3.4-.5.2-.1.3-.2.4-.2h.3c.1 0 .2.1.3.2 0 .1.1.1.1.1.1.1.3.2.4.2.1.1.3.2.5.3.2.2.4.2.5.3.4.2.6.3.6.4v.2z"/></svg>