<?xml version="1.0" encoding="utf-8"?>
<!-- Generator: Adobe Illustrator 20.0.0, SVG Export Plug-In . SVG Version: 6.00 Build 0)  -->
<svg version="1.1" id="Layer_1" xmlns="http://www.w3.org/2000/svg" xmlns:xlink="http://www.w3.org/1999/xlink" x="0px" y="0px"
	 viewBox="0 0 512 512" style="enable-background:new 0 0 512 512;" xml:space="preserve">
<style type="text/css">
	.st0{fill:#ADADAD;}
</style>
<g>
	<path class="st0" d="M436.6,83.7C388.3,42.3,324.1,19.5,256,19.5S123.7,42.3,75.4,83.7C26.8,125.4,0,180.9,0,240.1
		c0,31.3,7.5,61.6,22.2,90c13.3,25.6,31.8,48.4,55.1,68C67.2,423.4,52.9,452,45,467.5c-3.1,6-2.4,13,1.7,18.4
		c3.3,4.3,8.2,6.6,13.4,6.6c1.3,0,2.6-0.1,3.9-0.5c25.3-5.8,73.4-18.9,115.1-41.5c24.9,6.7,50.7,10.2,76.8,10.2
		c68.1,0,132.3-22.8,180.6-64.2c48.7-41.7,75.4-97.3,75.4-156.4S485.2,125.4,436.6,83.7L436.6,83.7z M256,444.1
		c-25.7,0-51.2-3.5-75.6-10.5c-2.1-0.6-4.4-0.3-6.3,0.7c-40.6,22.6-88.7,35.7-113.8,41.5c-0.2,0-0.3,0.1-0.5-0.2
		c-0.2-0.3-0.1-0.4,0-0.6c10.6-20.7,25.4-50.7,35.3-76.6c1.3-3.4,0.3-7.2-2.6-9.4c-23.7-19-42.4-41.3-55.5-66.6
		c-13.5-26-20.3-53.7-20.3-82.4c0-112.5,107.4-204,239.4-204s239.4,91.5,239.4,204S388,444.1,256,444.1z"/>
	<path class="st0" d="M256,356.8c-8.8,0-16,7.2-16,16s7.2,16,16,16s16-7.2,16-16S264.8,356.8,256,356.8z"/>
	<path class="st0" d="M256,108c-63.1,0-114.5,43.4-114.5,96.8c0,15,3.9,29.4,11.7,42.8c2.3,4,7.4,5.3,11.3,3c4-2.3,5.3-7.4,3-11.3
		c-6.3-10.8-9.5-22.4-9.5-34.4c0-44.2,43.9-80.2,97.9-80.2s97.9,36,97.9,80.2c0,19-8.3,37.5-23.4,52c-15.3,14.7-36.5,24.4-59.6,27.3
		c-13.2,1.7-23.2,12.7-23.2,25.8v18.8c0,4.6,3.7,8.3,8.3,8.3c4.6,0,8.3-3.7,8.3-8.3v-18.8c0-4.8,3.6-8.7,8.7-9.3
		c26.6-3.3,51.1-14.6,69-31.8c18.4-17.7,28.5-40.4,28.5-64C370.5,151.4,319.1,108,256,108z"/>
</g>
</svg>
