<?xml version="1.0" encoding="utf-8"?>
<!-- Generator: Adobe Illustrator 20.0.0, SVG Export Plug-In . SVG Version: 6.00 Build 0)  -->
<svg version="1.1" id="Layer_1" xmlns="http://www.w3.org/2000/svg" xmlns:xlink="http://www.w3.org/1999/xlink" x="0px" y="0px"
	 viewBox="0 0 146.2 42.7" style="enable-background:new 0 0 146.2 42.7;" xml:space="preserve">
<style type="text/css">
	.st0{fill:#FFFFFF;}
</style>
<g>
	<circle class="st0" cx="2.2" cy="5.8" r="2"/>
	<rect x="0.8" y="10.1" class="st0" width="2.9" height="23.6"/>
	<path class="st0" d="M16.9,9.4c-3.3,0-6.4,1.9-7.5,4.8H9.3v-4.1H6.4v23.6h2.9V19.9c0.1-4.6,2.8-8.1,7.4-8.1c4.7,0,6,3.1,6,7.1v14.7
		h2.9V18.5C25.5,12.9,23.5,9.4,16.9,9.4z"/>
	<path class="st0" d="M38.1,32c-5.5,0-8.3-5.1-8.3-10.1c0-5,2.8-10.1,8.3-10.1c3.8,0,5.9,2.1,6.7,5.7h2.9c-0.7-5.4-4.5-8.1-9.6-8.1
		c-7.2,0-11.2,5.7-11.2,12.5c0,6.8,4,12.5,11.2,12.5c5.3,0,9-3.4,9.7-9.1h-2.9C44.6,29.1,41.6,32,38.1,32z"/>
	<path class="st0" d="M57.5,30.2l-7.8-20.1h-3.1l9.4,23.5l-1,2.7c-1,2.2-1.6,3.7-4.1,3.7c-0.7,0-1.3-0.1-2-0.2v2.4
		c0.5,0.2,1.1,0.2,2.2,0.2c3.6,0,4.5-1.1,6.2-5.1l10.2-27.2h-2.9L57.5,30.2z"/>
	<path class="st0" d="M79.6,1H68.5v32.7h4.2V20.4h6.9c2.8,0,5.2-0.9,7.2-2.8c2-1.8,3-4.2,3-7c0-2.8-1-5.1-3-7
		C84.8,1.9,82.4,1,79.6,1z M84,14.6c-1.1,1.2-2.5,1.8-4.3,1.8h-7V5h7c1.8,0,3.2,0.6,4.3,1.8c1.1,1.2,1.6,2.5,1.6,3.9
		C85.6,12.1,85,13.4,84,14.6z"/>
	<path class="st0" d="M145,20.8c-0.6-1.2-1.4-2.2-2.5-3c-1.1-0.8-2.2-1.5-3.3-1.9c-1.1-0.5-2.4-1-4-1.5c-2-0.7-3.6-1.4-4.6-2.3
		c-1.1-0.8-1.6-1.9-1.6-3.1c0-1.3,0.6-2.5,1.7-3.4c1.1-0.9,2.5-1.3,4.1-1.3c1.7,0,3.1,0.4,4.2,1.3c1.1,0.9,1.8,1.8,2,2.9l3.8-1.6
		c-0.5-1.6-1.6-3.2-3.4-4.5c-1.7-1.4-4-2.1-6.8-2.1c-3,0-5.4,0.9-7.3,2.6c-1.9,1.7-2.8,3.8-2.8,6.1c0,2.3,0.7,4.1,2.2,5.6
		c1.5,1.4,3.7,2.6,6.6,3.5c2.8,0.9,4.9,1.8,6.1,2.8c1.3,1,1.9,2.4,1.9,4.2c0,1.6-0.6,2.9-1.9,3.9c-1.3,1-2.9,1.4-4.7,1.4
		c-1.8,0-3.4-0.6-4.8-1.9c-1.4-1.2-2.4-2.7-2.8-4.5l-3.8,1.6c0.7,2.8,2.2,5,4.5,6.5c2.3,1.6,4.6,2.3,7,2.3c1.3,0,2.6-0.2,3.8-0.6
		c1.2-0.4,2.4-0.9,3.5-1.7c1.1-0.7,1.9-1.7,2.6-3c0.7-1.2,1-2.7,1-4.3C145.8,23.4,145.5,22,145,20.8z"/>
</g>
<path class="st0" d="M97.5,11.9c-0.4,0.5-0.6,1.1-0.6,1.6h0.9c0-0.6,0.2-1.2,0.6-1.8c0.5-0.7,1.1-1.1,1.8-1.3
	C99.3,10.4,98.2,10.9,97.5,11.9z"/>
<path class="st0" d="M101.8,25.8h1.6V18c-0.5,0.3-1,0.5-1.6,0.7V25.8z"/>
<path class="st0" d="M120.1,5.2c-3.2-3.3-7.2-5-12-5c-4.8,0-8.8,1.7-12,5c-3.2,3.3-4.8,7.4-4.8,12.1c0,4.8,1.6,8.8,4.8,12.1
	c3.2,3.3,7.2,5,12,5c4.8,0,8.8-1.7,12-5c3.2-3.3,4.8-7.4,4.8-12.1C125,12.6,123.4,8.5,120.1,5.2z M115.6,18.8
	C115.5,18.8,115.5,18.8,115.6,18.8l0.5,8.3c0,0.9-0.8,1.7-1.7,1.7h-12.4c-0.9,0-1.7-0.8-1.7-1.7l0.6-8.3c0,0-0.1,0-0.1,0
	c-2.7,0-4.8-2.2-4.8-4.8c0-2.7,2.2-4.8,4.8-4.8c0.6,0,1.1,0.1,1.7,0.3c1.1-2.1,3.3-3.5,5.7-3.5c2.5,0,4.6,1.4,5.7,3.6
	c0.5-0.2,1.1-0.3,1.8-0.3c2.7,0,4.8,2.2,4.8,4.8C120.4,16.6,118.2,18.8,115.6,18.8z"/>
</svg>
